<svg width="826.964" height="175.695" viewBox="0 0 826.964 175.695" xmlns="http://www.w3.org/2000/svg"><g id="svgGroup" stroke-linecap="round" fill-rule="evenodd" font-size="9pt" stroke="#ffffff" stroke-width="0" fill="#ffffff" style="stroke:#ffffff;stroke-width:0;fill:#ffffff"><path d="M 814.747 82.795 L 814.747 117.16 L 826.964 117.16 L 826.964 142.56 L 772.647 142.56 L 772.647 82.619 Q 772.647 78.84 770.187 75.939 A 8.905 8.905 0 0 0 768.122 74.119 A 7.082 7.082 0 0 0 764.298 73.039 A 9.59 9.59 0 0 0 761.025 73.561 Q 758.254 74.562 756.905 77.485 A 11.769 11.769 0 0 0 756.212 79.455 Q 754.454 86.047 754.454 97.912 L 754.454 142.56 L 712.267 142.56 L 712.267 82.619 Q 712.267 78.84 709.85 75.939 A 8.704 8.704 0 0 0 707.807 74.116 A 7 7 0 0 0 704.005 73.039 A 9.59 9.59 0 0 0 700.732 73.561 Q 697.961 74.562 696.612 77.485 A 11.769 11.769 0 0 0 695.919 79.455 Q 694.161 86.047 694.161 97.912 L 694.161 117.16 L 694.337 117.16 L 694.337 142.56 L 639.405 142.56 L 639.405 117.16 L 652.149 117.16 L 652.149 75.588 L 639.405 75.588 L 639.405 51.857 L 694.161 46.584 L 694.161 59.768 A 37.818 37.818 0 0 1 700.967 53.379 A 31.11 31.11 0 0 1 707.96 49.572 A 43.924 43.924 0 0 1 718.277 47.022 A 56.77 56.77 0 0 1 725.45 46.584 A 35.682 35.682 0 0 1 735.455 47.889 Q 746.744 51.182 751.269 62.789 A 34 34 0 0 1 751.554 63.547 A 45.589 45.589 0 0 1 757.608 56.505 A 33.253 33.253 0 0 1 766.495 50.451 A 42.183 42.183 0 0 1 778.513 47.051 A 54.164 54.164 0 0 1 785.743 46.584 A 32.849 32.849 0 0 1 798.432 48.847 Q 812.626 54.754 814.471 76.078 A 78.013 78.013 0 0 1 814.747 82.795 Z M 34.718 134.475 L 31.642 142.56 L 3.253 142.56 L 3.253 99.758 L 31.466 99.758 A 23.592 23.592 0 0 0 33.923 104.683 A 16.361 16.361 0 0 0 39.859 110.173 Q 45.528 113.205 53.79 113.205 A 21.004 21.004 0 0 0 57.895 112.824 A 15.106 15.106 0 0 0 62.491 111.14 A 9.015 9.015 0 0 0 64.313 109.793 A 5.59 5.59 0 0 0 66.095 105.646 Q 66.095 101.676 62.958 99.536 A 9.282 9.282 0 0 0 62.403 99.186 Q 58.712 97.033 52.032 95.187 A 202.448 202.448 0 0 1 43.913 92.836 A 154.021 154.021 0 0 1 36.607 90.353 A 141.632 141.632 0 0 1 30.071 87.761 A 106.771 106.771 0 0 1 24.259 85.08 Q 13.36 79.631 6.681 69.611 A 36.649 36.649 0 0 1 1.886 58.77 Q 0.59 53.982 0.185 48.314 A 74.858 74.858 0 0 1 0.001 42.98 A 49.86 49.86 0 0 1 1.473 30.632 A 40.951 40.951 0 0 1 5.538 20.48 Q 10.987 10.812 21.227 5.407 A 45.814 45.814 0 0 1 35.06 0.827 A 61.587 61.587 0 0 1 45.353 0.002 A 42.862 42.862 0 0 1 57.046 1.514 A 31.688 31.688 0 0 1 72.159 10.812 L 76.642 2.551 L 101.866 2.551 L 101.866 44.475 L 74.884 44.475 Q 72.493 39.47 69.785 36.4 A 17.14 17.14 0 0 0 66.534 33.488 A 16.223 16.223 0 0 0 61.926 31.399 Q 59.796 30.786 57.241 30.554 A 36.212 36.212 0 0 0 53.966 30.412 A 27.598 27.598 0 0 0 50.442 30.622 Q 46.858 31.085 44.562 32.565 A 7.861 7.861 0 0 0 42.559 34.366 Q 41.253 36.066 41.222 38.386 A 8.471 8.471 0 0 0 41.222 38.498 A 6.176 6.176 0 0 0 43.801 43.583 A 11.256 11.256 0 0 0 46.056 44.914 Q 50.343 46.978 57.929 48.756 A 125.466 125.466 0 0 0 59.591 49.133 Q 73.62 52.339 84.139 57.082 A 90.726 90.726 0 0 1 86.134 58.01 Q 97.032 63.371 103.58 73.171 Q 110.128 82.971 110.128 98.439 A 54.299 54.299 0 0 1 108.026 113.757 A 47.903 47.903 0 0 1 104.679 122.17 Q 99.142 132.805 88.99 138.957 A 42.601 42.601 0 0 1 70.551 144.893 A 52.48 52.48 0 0 1 65.743 145.109 A 83.211 83.211 0 0 1 60.635 144.961 Q 58.128 144.806 55.944 144.491 A 42.01 42.01 0 0 1 53.439 144.055 Q 48.341 143 43.99 140.627 A 60.754 60.754 0 0 1 39.569 137.95 Q 37.217 136.394 34.718 134.475 Z M 576.739 147.922 L 590.274 147.922 L 590.274 175.695 L 529.454 175.695 L 529.454 147.922 L 547.296 147.922 L 552.13 139.836 L 511.085 75.588 L 499.923 75.588 L 499.923 48.43 L 565.841 48.43 L 565.841 75.588 L 557.14 75.588 L 571.73 102.57 L 585.089 75.588 L 575.509 75.588 L 575.509 48.43 L 624.64 48.43 L 624.64 75.588 L 615.147 75.588 L 576.739 147.922 Z M 429.347 111.096 L 429.347 142.56 L 353.761 142.56 L 353.761 111.096 L 367.472 111.096 L 367.472 33.664 L 354.112 33.664 L 354.112 2.551 L 428.995 2.551 Q 445.65 2.551 458.649 6.042 A 83.031 83.031 0 0 1 459.537 6.286 Q 472.853 10.021 480.455 18.81 A 29.48 29.48 0 0 1 486.483 30.347 Q 488.058 35.981 488.058 42.98 A 78.285 78.285 0 0 1 486.904 56.913 Q 485.521 64.541 482.482 70.454 A 34.374 34.374 0 0 1 473.468 81.652 Q 458.878 93.43 429.698 93.43 Q 422.228 93.43 416.603 92.551 L 416.603 111.096 L 429.347 111.096 Z M 195.382 57.746 L 198.985 48.43 L 218.146 48.43 L 218.146 87.277 L 192.745 87.277 A 27.076 27.076 0 0 0 191.94 82.807 Q 190.864 78.886 188.614 76.291 A 11.563 11.563 0 0 0 184.968 73.42 A 10.934 10.934 0 0 0 180.089 72.336 A 18.993 18.993 0 0 0 175.417 72.876 A 12.646 12.646 0 0 0 168.575 77.126 A 13.022 13.022 0 0 0 166.5 80.868 Q 165.086 84.634 164.735 90.541 A 69.735 69.735 0 0 0 164.62 94.66 A 39.011 39.011 0 0 0 164.966 100.026 Q 165.673 105.107 167.828 108.503 A 19.043 19.043 0 0 0 172.251 113.429 A 17.356 17.356 0 0 0 176.178 115.71 A 28.038 28.038 0 0 0 187.12 117.863 A 41.241 41.241 0 0 0 194.141 117.231 A 55.762 55.762 0 0 0 200.831 115.622 A 36.409 36.409 0 0 0 213.927 108.547 L 215.245 109.426 L 215.245 133.947 A 0.218 0.218 0 0 1 215.161 134.071 Q 214.66 134.547 211.164 136.3 A 186.482 186.482 0 0 1 209.884 136.935 A 46.085 46.085 0 0 1 205.576 138.831 Q 203.454 139.648 200.972 140.416 A 105.588 105.588 0 0 1 195.646 141.901 A 71.985 71.985 0 0 1 185.07 143.706 A 94.918 94.918 0 0 1 175.782 144.143 A 70.911 70.911 0 0 1 161.639 142.796 A 53.483 53.483 0 0 1 147.745 137.99 A 44.759 44.759 0 0 1 129.024 120.764 A 46.681 46.681 0 0 1 122.997 103.546 A 60.906 60.906 0 0 1 122.345 94.484 Q 122.345 80.861 127.97 69.963 A 41.661 41.661 0 0 1 143.834 52.824 A 43.224 43.224 0 0 1 161.027 46.999 A 55.025 55.025 0 0 1 167.872 46.584 A 47.497 47.497 0 0 1 174.594 47.082 A 58.417 58.417 0 0 1 178.858 47.858 A 43.705 43.705 0 0 1 185.488 49.852 A 36.184 36.184 0 0 1 189.273 51.594 A 17.376 17.376 0 0 1 192.077 53.431 Q 193.666 54.725 194.627 56.266 A 9.606 9.606 0 0 1 195.382 57.746 Z M 272.568 142.891 A 73.288 73.288 0 0 0 286.437 144.143 A 76.32 76.32 0 0 0 298.337 143.251 A 57.546 57.546 0 0 0 314.518 138.298 A 43.144 43.144 0 0 0 333.282 121.203 A 46.38 46.38 0 0 0 338.521 107.637 A 61.046 61.046 0 0 0 339.874 94.484 Q 339.874 79.191 333.282 68.513 A 41.705 41.705 0 0 0 328.635 62.332 A 43.633 43.633 0 0 0 314.693 52.209 A 57.713 57.713 0 0 0 299.848 47.661 A 79.586 79.586 0 0 0 286.437 46.584 A 79.219 79.219 0 0 0 274.206 47.49 A 59.66 59.66 0 0 0 258.575 52.077 Q 246.534 57.57 239.855 68.381 Q 233.175 79.103 233.175 94.484 Q 233.175 109.953 239.855 121.203 Q 246.534 132.453 258.575 138.254 A 54.5 54.5 0 0 0 272.568 142.891 Z M 286.437 118.478 A 9.136 9.136 0 0 0 290.865 117.426 Q 293.444 116.026 295.05 112.766 A 19.372 19.372 0 0 0 296.367 109.081 Q 297.774 103.644 297.774 94.484 A 81.14 81.14 0 0 0 297.585 88.73 Q 297.186 83.134 295.942 79.572 A 15.851 15.851 0 0 0 295.094 77.565 Q 292.413 72.336 286.437 72.336 A 9.729 9.729 0 0 0 282.536 73.087 Q 279.691 74.317 277.999 77.565 A 18.122 18.122 0 0 0 276.621 81.24 Q 275.597 85.063 275.352 90.734 A 86.97 86.97 0 0 0 275.274 94.484 A 88.226 88.226 0 0 0 275.485 100.81 Q 275.918 106.812 277.244 110.694 A 18.325 18.325 0 0 0 278.087 112.766 A 12.592 12.592 0 0 0 279.99 115.646 A 8.296 8.296 0 0 0 286.437 118.478 Z M 424.161 33.664 L 416.778 33.664 L 416.778 64.777 L 420.382 64.777 Q 437.542 64.777 439.943 51.774 A 25.215 25.215 0 0 0 440.333 47.199 A 15.35 15.35 0 0 0 439.778 42.953 A 11.164 11.164 0 0 0 435.939 37.18 A 15.203 15.203 0 0 0 430.285 34.398 Q 427.535 33.664 424.161 33.664 Z" vector-effect="non-scaling-stroke"/></g></svg>